<svg width="136" height="83" viewBox="0 0 136 83" fill="none" xmlns="http://www.w3.org/2000/svg">
<g id="Logo 2">
<g id="Group">
<path id="Vector" d="M125.634 16.6931L124.089 32.6437C123.753 35.444 122.308 38.0671 120.072 39.936L118.411 41.3234C114.143 44.8908 107.957 44.5481 104.595 40.5574C102.975 38.6344 100.842 37.1985 98.4107 36.3926L92.1947 34.3327C91.2433 34.0175 90.6667 33.14 90.696 32.1779C90.7433 30.5611 92.4147 29.3555 93.9653 29.8684C103.011 32.8663 92.5353 29.3945 102.817 32.8018C91.0147 24.8533 91.286 25.149 90.914 24.4938C90.866 24.437 90.704 24.0901 90.6433 23.8041C90.11 21.426 92.9007 19.5364 94.87 20.862C95.4853 21.2764 105.158 27.7915 105.751 28.1913C95.6953 16.2549 96.1947 16.8661 96.0667 16.6606C95.3507 15.5156 95.7207 14.0235 96.6027 13.2864C97.7767 12.21 99.5367 12.2858 100.477 13.4021L110.253 25.0071C104.096 10.5694 104.483 11.6196 104.43 11.0308C104.294 9.76028 105.247 8.38282 106.673 8.07465C107.767 7.78734 109.058 8.31794 109.571 9.46009L115.523 22.7338L117.485 25.062C118.142 25.8426 119.48 25.3902 119.605 24.3452C119.855 18.9097 119.827 19.3876 119.863 19.1556C120.259 16.6596 122.095 14.8062 123.015 14.5633C124.41 14.1111 125.82 15.1451 125.634 16.6931Z" fill="#F9CFAC"/>
<path id="Vector_2" d="M124.612 14.6841L122.778 32.8339C122.39 34.9279 121.382 36.8937 119.892 38.481C115.197 43.4881 108.308 43.0715 104.793 38.8984C103.172 36.9753 101.04 35.5395 98.6091 34.7336C90.3111 32.0588 90.7958 32.2173 90.6951 32.1777C90.7218 31.2769 91.2738 30.4146 92.1538 29.9959C92.6478 29.7607 93.0265 29.7395 93.4985 29.7657C98.1138 31.2185 102.822 32.7968 102.816 32.8017C103.318 32.382 103.308 31.6311 102.796 31.2862C91.7771 23.8651 92.4205 24.3613 92.0845 23.9241C91.5818 23.2944 91.4138 22.3161 91.7538 21.4479C91.8951 21.0827 92.1245 20.7626 92.1478 20.7423C93.0105 20.3022 94.0558 20.3147 94.8691 20.8619C95.9538 21.5925 104.578 27.4013 105.75 28.1912C95.3378 15.8311 96.1698 16.847 95.9985 16.5493C95.8065 16.206 95.7051 15.8163 95.6891 15.489C95.6625 15.0902 95.7538 14.7062 95.7598 14.7013C96.3211 12.4765 99.1251 11.7983 100.476 13.4019L110.252 25.007C104.279 11.0005 104.59 11.7403 104.556 11.6368C103.936 9.88959 105.449 7.83112 107.541 8.02202C107.678 8.03803 107.079 6.81919 114.724 23.6809L116.685 26.0091C117.249 26.6789 118.594 26.6573 119.234 25.5492C119.664 24.8047 119.618 24.0467 119.66 23.1343C119.85 19.0294 119.823 19.5157 119.849 19.2452C119.997 18.1608 120.441 17.0434 121.203 16.0633C121.525 15.6513 122.082 15.0586 122.508 14.7955C123.086 14.4389 123.756 14.375 124.326 14.5639C124.48 14.6124 124.605 14.681 124.612 14.6841Z" fill="#FFE4CC"/>
<path id="Vector_3" d="M117.458 38.2961C117.199 38.5123 116.824 38.4915 116.62 38.2497C113.673 34.7515 113.951 29.4317 117.266 25.8753C117.497 25.6287 117.873 25.6006 118.109 25.8118C118.345 26.023 118.351 26.3938 118.121 26.64C115.221 29.7513 114.979 34.4058 117.557 37.4667C117.761 37.7085 117.717 38.0799 117.458 38.2961Z" fill="#F9CFAC"/>
</g>
<path id="Vector_4" d="M12.9071 26.6623C14.2973 26.8252 15.2889 27.2936 15.8817 28.0673C16.4747 28.8208 16.7711 29.7371 16.7711 30.8163C16.7711 31.4883 16.6689 32.1297 16.4644 32.7406C16.26 33.3311 16.0147 33.8402 15.7284 34.2678C15.4422 34.675 15.1969 34.9397 14.9924 35.0619C14.1747 35.5913 11.6804 35.8561 7.50974 35.8561H1.56042V18.446H8.76707C10.4027 18.446 11.7213 18.5376 12.7231 18.7209C13.7453 18.8838 14.5733 19.2707 15.2071 19.8816C15.8409 20.472 16.1577 21.3782 16.1577 22.6C16.1577 23.6589 15.892 24.5141 15.3604 25.1657C14.8493 25.8173 14.0315 26.2653 12.9071 26.5096V26.6623ZM10.4537 22.1418C10.2493 21.9382 10.004 21.816 9.71774 21.7753C9.452 21.7142 9.02267 21.6836 8.42974 21.6836C7.83687 21.6836 7.38707 21.6938 7.0804 21.7142V25.4406H7.38707C7.48934 25.4406 7.91867 25.4406 8.67507 25.4406C9.43154 25.4406 9.9324 25.3896 10.1777 25.2878C10.3617 25.2064 10.5253 24.9926 10.6684 24.6464C10.832 24.3003 10.9137 23.9235 10.9137 23.5163C10.9137 22.9054 10.7604 22.4473 10.4537 22.1418ZM10.9751 32.3435C11.1182 32.2213 11.2307 31.9974 11.3124 31.6715C11.4147 31.3254 11.4657 30.9792 11.4657 30.633C11.4657 30.2054 11.4044 29.8084 11.2817 29.4418C11.1795 29.0549 11.0364 28.78 10.8524 28.6171C10.6684 28.4339 10.4027 28.3117 10.0551 28.2506C9.728 28.1895 9.16574 28.159 8.3684 28.159C7.85734 28.159 7.428 28.1691 7.0804 28.1895V32.6184C8.04134 32.6388 8.9 32.6286 9.6564 32.5879C10.4129 32.5268 10.8524 32.4453 10.9751 32.3435ZM28.7399 35.8561L28.2493 33.9318C27.3089 35.459 26.0004 36.2226 24.3239 36.2226C22.9542 36.2226 21.8297 35.8459 20.9506 35.0925C20.0919 34.3187 19.6626 33.2394 19.6626 31.8548C19.6626 30.9996 19.9079 30.2564 20.3986 29.6251C20.9097 28.9735 21.6049 28.5153 22.4839 28.2506C23.6289 27.9248 25.3973 27.7415 27.7893 27.7008C27.7893 26.3569 27.7279 25.6442 27.6053 25.5627C27.5031 25.4813 27.1759 25.4406 26.6239 25.4406C26.2764 25.4406 25.7959 25.4609 25.1826 25.5016C24.2013 25.5424 22.8724 25.6544 21.1959 25.8376C21.0324 24.738 20.9097 23.557 20.8279 22.2945C21.9115 22.0706 23.0462 21.8873 24.2319 21.7447C25.4177 21.5819 26.4809 21.5004 27.4213 21.5004C29.0569 21.5004 30.2835 21.7753 31.1013 22.3251C31.9191 22.8545 32.4506 23.557 32.6959 24.4326C32.9413 25.3082 33.0537 26.418 33.0333 27.7619L33.0026 32.2519L33.0946 35.8561H28.7399ZM26.1026 32.8017C26.6342 32.8017 27.1964 32.6999 27.7893 32.4962V30.236H27.5439C26.0311 30.236 25.1929 30.3174 25.0293 30.4803C24.9271 30.5821 24.8453 30.7348 24.7839 30.9385C24.7431 31.1421 24.7226 31.3356 24.7226 31.5188C24.7226 32.0075 24.8351 32.3435 25.0599 32.5268C25.2849 32.71 25.6324 32.8017 26.1026 32.8017ZM50.5811 22.6916C50.7651 22.9156 50.898 23.4756 50.9797 24.3715C51.082 25.2675 51.1331 26.6318 51.1331 28.4644V35.8561H45.8891V28.5255V27.2732C45.8891 26.6216 45.838 26.2143 45.7357 26.0514C45.5722 25.8478 45.194 25.746 44.6011 25.746C44.3149 25.746 44.1002 25.7562 43.9571 25.7765C43.3847 25.7969 42.7917 25.9293 42.1784 26.1736V35.8561H36.9344V21.8058H41.1971L41.7797 24.1577C43.2517 22.3862 45.01 21.5004 47.0544 21.5004C47.7904 21.5004 48.4753 21.6022 49.1091 21.8058C49.7633 22.0095 50.254 22.3047 50.5811 22.6916ZM61.5902 30.0833C61.5902 30.4498 61.6004 30.8367 61.6209 31.2439C61.6413 31.6308 61.7026 31.8752 61.8049 31.977C61.9479 32.1195 62.4489 32.1908 63.3075 32.1908L64.3502 32.1602C64.5342 33.1377 64.6262 34.2678 64.6262 35.5506C64.2377 35.6932 63.6653 35.8255 62.9089 35.9477C62.1729 36.0699 61.4675 36.131 60.7929 36.131C59.3822 36.131 58.2884 35.8255 57.5115 35.2146C56.7551 34.5834 56.3769 33.6162 56.3769 32.313V24.7991H54.0769V22.0196L56.3769 21.8058L57.7569 18.446L61.5902 18.2322V21.8058H64.8409V24.7991H61.5902V30.0833ZM82.0493 21.8058V35.8561H77.7867L77.204 33.5042C75.732 35.2757 73.9733 36.1615 71.9293 36.1615C71.1933 36.1615 70.498 36.0597 69.844 35.8561C69.21 35.6524 68.7293 35.3572 68.4027 34.9703C68.2187 34.7463 68.0753 34.1863 67.9733 33.2904C67.8913 32.3944 67.8507 31.0301 67.8507 29.1975V21.8058H73.0947V29.1364C73.0947 29.5436 73.1047 30.0222 73.1253 30.572C73.1453 31.1217 73.2067 31.4679 73.3093 31.6105C73.452 31.8141 73.8613 31.9159 74.536 31.9159L75.0267 31.8853C75.5987 31.865 76.192 31.7326 76.8053 31.4883V21.8058H82.0493Z" fill="#4D4343"/>
<path id="Vector_5" d="M30.2018 50.5391L26.3932 73.0073L17.1484 73.2019L15.1627 61.5625L13.1771 72.3593L3.93227 72.6833L0.0911255 50.5391L8.16406 49.8258L9.79166 63.2809L11.9727 49.8258H18.3203L20.8593 63.443L22.1615 49.8258L30.2018 50.5391ZM52.1321 71.6455L44.0592 72.6833L43.0827 69.0194H39.3717L38.5579 72.6833L30.2571 71.8726L36.735 50.2798L45.7845 49.8258L52.1321 71.6455ZM42.4967 64.059L41.2597 58.4176L40.0553 64.059H42.4967ZM73.216 57.4125C73.216 58.2555 73.14 59.0228 72.988 59.7145C72.8473 60.3953 72.6193 61.0222 72.3047 61.595C71.99 62.1677 71.5833 62.6973 71.084 63.1836C70.5847 63.67 69.9827 64.1346 69.2773 64.5778L73.1513 71.4509L65.8268 72.8779L63.3203 65.9719L61.3021 66.0367L61.0091 72.7803H54.0104C54.0647 70.3162 54.1135 67.8633 54.1569 65.4207C54.2111 62.9783 54.2708 60.525 54.3359 58.061C54.3576 56.8182 54.3793 55.5861 54.401 54.3649C54.4227 53.1437 54.4661 51.9116 54.5313 50.6688C55.2908 50.3878 56.0395 50.1555 56.7773 49.9717C57.5152 49.788 58.253 49.6475 58.9909 49.5502C59.7396 49.4422 60.4937 49.3719 61.2533 49.3395C62.0237 49.2962 62.8103 49.2747 63.6133 49.2747C64.8503 49.2747 66.0438 49.4476 67.194 49.7934C68.3553 50.1284 69.3807 50.6364 70.27 51.3173C71.16 51.9981 71.8707 52.8464 72.402 53.8624C72.9447 54.8782 73.216 56.0616 73.216 57.4125ZM65.9245 57.9313C65.9245 57.4774 65.8593 57.0613 65.7291 56.683C65.6098 56.3048 65.4253 55.9806 65.1757 55.7104C64.9371 55.4294 64.6332 55.2133 64.2643 55.0619C63.9063 54.8999 63.4831 54.8188 62.9948 54.8188C62.7777 54.8188 62.5662 54.835 62.36 54.8674C62.1539 54.889 61.9531 54.9269 61.7578 54.9809L61.4974 61.0114H61.888C62.3546 61.0114 62.8266 60.9519 63.304 60.833C63.7923 60.7142 64.2263 60.5305 64.6061 60.2819C64.9967 60.0333 65.3114 59.7145 65.5501 59.3254C65.7997 58.9364 65.9245 58.4717 65.9245 57.9313ZM95.7 69.4085C95.19 70.0466 94.5607 70.603 93.812 71.0784C93.0633 71.5539 92.26 71.9483 91.4027 72.2617C90.546 72.5751 89.6667 72.8128 88.766 72.9748C87.8653 73.1262 87.0087 73.2019 86.1947 73.2019C84.6213 73.2019 83.1727 72.937 81.8487 72.4078C80.5253 71.8779 79.3807 71.1435 78.4147 70.2033C77.46 69.2518 76.7113 68.1223 76.1687 66.8149C75.626 65.5072 75.3547 64.0807 75.3547 62.5352C75.3547 61.3572 75.4907 60.2116 75.762 59.0985C76.0327 57.9853 76.418 56.9424 76.9173 55.9698C77.4273 54.9971 78.046 54.1055 78.7727 53.295C79.5 52.4844 80.3247 51.7874 81.2467 51.2038C82.1693 50.6202 83.178 50.1717 84.274 49.8582C85.3807 49.534 86.5527 49.3719 87.79 49.3719C88.256 49.3719 88.7553 49.3935 89.2873 49.4367C89.8187 49.4692 90.3453 49.534 90.866 49.6313C91.3973 49.7177 91.9127 49.842 92.412 50.0041C92.9113 50.1663 93.3667 50.3662 93.7793 50.6039L93.3233 56.7965C92.716 56.5696 92.0867 56.4182 91.4353 56.3426C90.7953 56.2562 90.166 56.2129 89.5473 56.2129C88.6793 56.2129 87.8653 56.3318 87.106 56.5696C86.3573 56.7965 85.7007 57.1369 85.1367 57.5909C84.5833 58.0448 84.144 58.6122 83.8187 59.293C83.4927 59.9739 83.33 60.7628 83.33 61.6598C83.33 62.2218 83.406 62.7675 83.558 63.2971C83.71 63.8159 83.938 64.2806 84.2413 64.6913C84.556 65.0911 84.9413 65.4154 85.3973 65.6639C85.864 65.9125 86.4007 66.0367 87.0087 66.0367C87.4207 66.0367 87.844 65.9827 88.278 65.8747C88.7227 65.7666 89.1027 65.5828 89.4173 65.3235L89.4827 64.059L85.576 63.9942L85.7713 59.1309C87.388 59.0769 89.0047 59.0336 90.622 59.0012C92.2387 58.958 93.866 58.9039 95.5047 58.8391L95.7 69.4085ZM119.144 71.6455L111.071 72.6833L110.095 69.0194H106.383L105.569 72.6833L97.2687 71.8726L103.747 50.2798L112.796 49.8258L119.144 71.6455ZM109.509 64.059L108.271 58.4176L107.067 64.059H109.509Z" fill="white"/>
</g>
</svg>
