<svg width="101" height="62" viewBox="0 0 101 62" fill="none" xmlns="http://www.w3.org/2000/svg">
<g id="Logo 1">
<g id="Group">
<path id="Vector" d="M93.3017 12.4695L92.1546 24.3843C91.905 26.4762 90.8317 28.4356 89.1711 29.8317L87.9378 30.868C84.7682 33.5328 80.1737 33.2768 77.6769 30.2958C76.4738 28.8593 74.89 27.7867 73.0844 27.1848L68.4681 25.6461C67.7616 25.4106 67.3333 24.7551 67.3551 24.0364C67.3903 22.8287 68.6315 21.9281 69.7831 22.3113C76.5006 24.5506 68.7211 21.9573 76.3565 24.5025C67.5918 18.565 67.7933 18.7859 67.517 18.2965C67.4814 18.2541 67.361 17.9949 67.316 17.7813C66.9199 16.0049 68.9924 14.5933 70.4549 15.5836C70.9119 15.8932 78.0953 20.7599 78.5359 21.0585C71.0678 12.1421 71.4387 12.5987 71.3436 12.4452C70.8119 11.5899 71.0867 10.4753 71.7417 9.92469C72.6135 9.12068 73.9206 9.17727 74.6187 10.0111L81.8793 18.6799C77.3066 7.89511 77.5937 8.67963 77.5546 8.23978C77.4536 7.29073 78.1616 6.26178 79.2201 6.03159C80.0326 5.81697 80.9916 6.21332 81.3728 7.06649L85.7931 16.9818L87.2496 18.7209C87.7378 19.304 88.7315 18.9661 88.8245 18.1855C89.0102 14.1253 88.9889 14.4822 89.0156 14.3089C89.3097 12.4444 90.6737 11.0599 91.3565 10.8785C92.3927 10.5408 93.4398 11.3131 93.3017 12.4695Z" fill="#F9CFAC"/>
<path id="Vector_2" d="M92.5437 10.9688L91.1812 24.5265C90.893 26.0907 90.145 27.5591 89.0379 28.7448C85.5514 32.4851 80.4356 32.1739 77.8249 29.0566C76.6213 27.6201 75.0375 26.5475 73.2324 25.9455C67.0699 23.9475 67.4299 24.0659 67.3551 24.0363C67.3749 23.3634 67.7848 22.7193 68.4384 22.4065C68.8052 22.2308 69.0865 22.215 69.437 22.2346C72.8645 23.3198 76.3609 24.4988 76.3565 24.5024C76.7293 24.1889 76.7224 23.628 76.3421 23.3704C68.1586 17.8269 68.6364 18.1976 68.3869 17.871C68.0136 17.4006 67.8888 16.6698 68.1413 16.0213C68.2463 15.7485 68.4166 15.5094 68.4339 15.4942C69.0746 15.1654 69.8509 15.1748 70.4549 15.5835C71.2604 16.1293 77.6655 20.4684 78.5359 21.0584C70.803 11.8256 71.4208 12.5845 71.2936 12.3621C71.151 12.1056 71.0758 11.8145 71.0639 11.5701C71.0441 11.2722 71.1119 10.9853 71.1164 10.9816C71.5332 9.31977 73.6156 8.81316 74.6187 10.011L81.8793 18.6799C77.4432 8.21721 77.6739 8.76981 77.6492 8.69248C77.1882 7.38735 78.3121 5.8497 79.8657 5.9923C79.9672 6.00426 79.5226 5.0938 85.1999 17.6893L86.6565 19.4284C87.0753 19.9288 88.074 19.9126 88.5497 19.0849C88.8691 18.5288 88.8349 17.9626 88.8661 17.281C89.0067 14.2147 88.9869 14.5779 89.0062 14.3759C89.1161 13.5659 89.4459 12.7312 90.0118 11.999C90.2509 11.6913 90.6648 11.2485 90.9807 11.052C91.4099 10.7856 91.908 10.7379 92.3308 10.879C92.4452 10.9153 92.5383 10.9665 92.5437 10.9688Z" fill="#FFE4CC"/>
<path id="Vector_3" d="M87.2298 28.6066C87.0377 28.7681 86.759 28.7525 86.6075 28.5719C84.4192 25.9588 84.6251 21.985 87.0873 19.3284C87.2586 19.1442 87.5378 19.1232 87.7131 19.281C87.8888 19.4387 87.8928 19.7157 87.722 19.8996C85.5683 22.2237 85.3886 25.7006 87.3036 27.987C87.4546 28.1677 87.4219 28.4451 87.2298 28.6066Z" fill="#F9CFAC"/>
</g>
<path id="Vector_4" d="M9.58537 19.9164C10.6178 20.038 11.3542 20.3879 11.7945 20.9659C12.2348 21.5287 12.455 22.2132 12.455 23.0193C12.455 23.5213 12.3791 24.0004 12.2272 24.4567C12.0754 24.8978 11.8932 25.2781 11.6806 25.5975C11.4681 25.9017 11.2859 26.0995 11.134 26.1908C10.5267 26.5862 8.67439 26.784 5.57705 26.784H1.15881V13.7789H6.51081C7.72548 13.7789 8.70479 13.8473 9.44872 13.9842C10.2079 14.1059 10.8228 14.3949 11.2935 14.8512C11.7641 15.2923 11.9995 15.9692 11.9995 16.8818C11.9995 17.6728 11.8021 18.3116 11.4073 18.7984C11.0278 19.2851 10.4204 19.6197 9.58537 19.8023V19.9164ZM7.76341 16.5396C7.61161 16.3875 7.42941 16.2962 7.21682 16.2658C7.01947 16.2202 6.70063 16.1973 6.26029 16.1973C5.82 16.1973 5.48596 16.2049 5.25821 16.2202V19.0037H5.48595C5.5619 19.0037 5.88075 19.0037 6.44248 19.0037C7.00427 19.0037 7.37624 18.9657 7.55844 18.8896C7.69508 18.8288 7.81658 18.6691 7.92283 18.4105C8.04432 18.1519 8.10502 17.8705 8.10502 17.5663C8.10502 17.11 7.99115 16.7677 7.76341 16.5396ZM8.15057 24.1601C8.25687 24.0689 8.34039 23.9016 8.40109 23.6582C8.47704 23.3996 8.51497 23.141 8.51497 22.8824C8.51497 22.563 8.46942 22.2664 8.37832 21.9926C8.30242 21.7036 8.19612 21.4983 8.05947 21.3766C7.92283 21.2397 7.72548 21.1484 7.46734 21.1028C7.22444 21.0572 6.80688 21.0343 6.21474 21.0343C5.8352 21.0343 5.51635 21.0419 5.25821 21.0572V24.3655C5.97184 24.3807 6.60953 24.3731 7.17127 24.3427C7.73306 24.297 8.05947 24.2362 8.15057 24.1601ZM21.3436 26.784L20.9792 25.3466C20.2808 26.4874 19.3091 27.0578 18.0641 27.0578C17.0468 27.0578 16.2118 26.7764 15.5589 26.2136C14.9212 25.6356 14.6023 24.8294 14.6023 23.7951C14.6023 23.1562 14.7845 22.6011 15.1489 22.1295C15.5285 21.6428 16.0448 21.3005 16.6976 21.1028C17.5479 20.8594 18.8612 20.7225 20.6376 20.6921C20.6376 19.6882 20.592 19.1558 20.5009 19.095C20.425 19.0341 20.1821 19.0037 19.7722 19.0037C19.5141 19.0037 19.1572 19.0189 18.7018 19.0493C17.973 19.0798 16.9861 19.1634 15.7411 19.3003C15.6196 18.4789 15.5285 17.5967 15.4678 16.6537C16.2725 16.4864 17.1152 16.3495 17.9957 16.243C18.8764 16.1213 19.6659 16.0605 20.3643 16.0605C21.579 16.0605 22.4899 16.2658 23.0972 16.6765C23.7046 17.0719 24.0993 17.5967 24.2815 18.2508C24.4637 18.9049 24.5472 19.7338 24.532 20.7377L24.5093 24.0917L24.5776 26.784H21.3436ZM19.385 24.5024C19.7798 24.5024 20.1973 24.4263 20.6376 24.2742V22.5858H20.4554C19.3319 22.5858 18.7094 22.6467 18.5879 22.7684C18.512 22.8444 18.4512 22.9585 18.4057 23.1106C18.3753 23.2627 18.3601 23.4072 18.3601 23.5441C18.3601 23.9092 18.4437 24.1601 18.6107 24.297C18.7777 24.4339 19.0358 24.5024 19.385 24.5024ZM37.5638 16.9503C37.7005 17.1176 37.7992 17.5359 37.8599 18.2052C37.9359 18.8744 37.9738 19.8935 37.9738 21.2625V26.784H34.0793V21.3081V20.3727C34.0793 19.886 34.0414 19.5817 33.9655 19.46C33.844 19.3079 33.5632 19.2319 33.1228 19.2319C32.9103 19.2319 32.7509 19.2395 32.6446 19.2547C32.2195 19.2699 31.7791 19.3688 31.3236 19.5513V26.784H27.4292V16.2886H30.5949L31.0276 18.0454C32.1207 16.7221 33.4265 16.0605 34.9448 16.0605C35.4914 16.0605 36 16.1365 36.4707 16.2886C36.9566 16.4407 37.321 16.6613 37.5638 16.9503ZM45.7397 22.4718C45.7397 22.7455 45.7473 23.0346 45.7625 23.3388C45.7777 23.6278 45.8232 23.8103 45.8992 23.8863C46.0054 23.9928 46.3774 24.0461 47.0151 24.0461L47.7895 24.0232C47.9261 24.7533 47.9944 25.5975 47.9944 26.5558C47.7059 26.6623 47.2808 26.7612 46.7191 26.8524C46.1725 26.9437 45.6487 26.9893 45.1476 26.9893C44.1 26.9893 43.2877 26.7612 42.7107 26.3048C42.149 25.8333 41.8681 25.1108 41.8681 24.1373V18.5246H40.16V16.4483L41.8681 16.2886L42.8929 13.7789L45.7397 13.6191V16.2886H48.1538V18.5246H45.7397V22.4718ZM60.9337 16.2886V26.784H57.768L57.3353 25.0271C56.2421 26.3505 54.936 27.0121 53.4181 27.0121C52.8715 27.0121 52.3551 26.9361 51.8694 26.784C51.3986 26.6319 51.0416 26.4113 50.799 26.1223C50.6624 25.955 50.5559 25.5367 50.4802 24.8674C50.4193 24.1982 50.3891 23.179 50.3891 21.8101V16.2886H54.2835V21.7645C54.2835 22.0687 54.2909 22.4261 54.3063 22.8368C54.3211 23.2475 54.3667 23.5061 54.4429 23.6125C54.5489 23.7647 54.8529 23.8407 55.3539 23.8407L55.7183 23.8179C56.1431 23.8027 56.5837 23.7038 57.0392 23.5213V16.2886H60.9337Z" fill="#4D4343"/>
<path id="Vector_5" d="M22.4298 37.7522L19.6013 54.5357L12.7357 54.681L11.2611 45.9866L9.78641 54.0516L2.92079 54.2937L0.0681763 37.7522L6.06352 37.2194L7.27225 47.2702L8.89196 37.2194H13.606L15.4916 47.3913L16.4586 37.2194L22.4298 37.7522ZM38.7163 53.5184L32.7209 54.2937L31.9957 51.5567H29.2398L28.6354 54.2937L22.4709 53.688L27.2816 37.5585L34.0022 37.2194L38.7163 53.5184ZM31.5606 47.8514L30.6419 43.6374L29.7475 47.8514H31.5606ZM54.3741 42.8866C54.3741 43.5163 54.3177 44.0895 54.2048 44.6061C54.1004 45.1147 53.931 45.5829 53.6974 46.0108C53.4637 46.4387 53.1617 46.8342 52.7908 47.1975C52.42 47.5608 51.9729 47.9079 51.4491 48.2389L54.3261 53.3731L48.8866 54.439L47.0251 49.2803L45.5263 49.3288L45.3087 54.3661H40.1112C40.1515 52.5254 40.1877 50.6932 40.2199 48.8686C40.2602 47.0441 40.3046 45.2116 40.3529 43.3709C40.369 42.4426 40.3852 41.5223 40.4012 40.61C40.4174 39.6978 40.4496 38.7774 40.498 37.8491C41.062 37.6392 41.618 37.4656 42.166 37.3284C42.714 37.1911 43.2619 37.0862 43.8099 37.0135C44.3659 36.9328 44.9259 36.8803 45.4901 36.8561C46.0622 36.8238 46.6464 36.8077 47.2427 36.8077C48.1614 36.8077 49.0477 36.9368 49.9019 37.1952C50.7644 37.4454 51.5259 37.8249 52.1863 38.3335C52.8473 38.842 53.375 39.4758 53.7696 40.2346C54.1726 40.9935 54.3741 41.8774 54.3741 42.8866ZM48.9591 43.2741C48.9591 42.935 48.9107 42.6242 48.8141 42.3417C48.7254 42.0591 48.5884 41.8169 48.4031 41.6151C48.2258 41.4052 48.0002 41.2438 47.7262 41.1307C47.4603 41.0096 47.146 40.9491 46.7834 40.9491C46.6222 40.9491 46.4651 40.9612 46.312 40.9854C46.1589 41.0016 46.0098 41.0298 45.8648 41.0702L45.6714 45.5749H45.9614C46.308 45.5749 46.6585 45.5304 47.013 45.4417C47.3757 45.3529 47.698 45.2156 47.9801 45.0299C48.2701 44.8443 48.5038 44.6061 48.6811 44.3155C48.8664 44.0249 48.9591 43.6777 48.9591 43.2741ZM71.0718 51.8474C70.6931 52.324 70.2257 52.7397 69.6697 53.0948C69.1137 53.45 68.5171 53.7446 67.8804 53.9787C67.2442 54.2128 66.5912 54.3904 65.9223 54.5114C65.2534 54.6245 64.6172 54.681 64.0127 54.681C62.8443 54.681 61.7684 54.4831 60.7852 54.0878C59.8024 53.692 58.9523 53.1434 58.2349 52.4411C57.5259 51.7303 56.9699 50.8866 56.5669 49.91C56.1639 48.9332 55.9624 47.8676 55.9624 46.7131C55.9624 45.8332 56.0634 44.9774 56.2649 44.1459C56.4659 43.3145 56.7521 42.5354 57.1229 41.8088C57.5017 41.0823 57.9611 40.4163 58.5008 39.8108C59.0409 39.2053 59.6534 38.6846 60.3381 38.2487C61.0233 37.8128 61.7724 37.4777 62.5863 37.2436C63.4082 37.0014 64.2786 36.8803 65.1975 36.8803C65.5436 36.8803 65.9144 36.8965 66.3095 36.9288C66.7041 36.953 67.0952 37.0014 67.4819 37.0741C67.8765 37.1387 68.2592 37.2315 68.63 37.3526C69.0008 37.4737 69.339 37.6231 69.6454 37.8006L69.3068 42.4264C68.8558 42.2569 68.3884 42.1438 67.9047 42.0874C67.4294 42.0228 66.962 41.9905 66.5026 41.9905C65.858 41.9905 65.2534 42.0793 64.6895 42.2569C64.1335 42.4264 63.6459 42.6807 63.227 43.0198C62.8161 43.3588 62.4898 43.7827 62.2482 44.2913C62.0061 44.7999 61.8853 45.3892 61.8853 46.0592C61.8853 46.479 61.9417 46.8867 62.0546 47.2823C62.1675 47.6698 62.3368 48.0169 62.5621 48.3237C62.7958 48.6224 63.0819 48.8646 63.4206 49.0503C63.7672 49.236 64.1657 49.3288 64.6172 49.3288C64.9232 49.3288 65.2376 49.2884 65.5599 49.2077C65.8901 49.1269 66.1723 48.9897 66.406 48.7959L66.4545 47.8514L63.5533 47.803L63.6983 44.1702C64.8989 44.1298 66.0996 44.0975 67.3007 44.0733C68.5013 44.041 69.7098 44.0006 70.9268 43.9522L71.0718 51.8474ZM88.4824 53.5184L82.4868 54.2937L81.762 51.5567H79.0058L78.4013 54.2937L72.2368 53.688L77.0477 37.5585L83.7681 37.2194L88.4824 53.5184ZM81.3268 47.8514L80.4079 43.6374L79.5137 47.8514H81.3268Z" fill="#5669FF"/>
</g>
</svg>
